<?xml version="1.0" encoding="UTF-8"?>
<svg version="1.1" xmlns="http://www.w3.org/2000/svg" width="343" height="90">
<path d="M0 0 C1.98 0 3.96 0 6 0 C14 19.23404255 14 19.23404255 14 25 C14.66 25 15.32 25 16 25 C16.08636719 24.45214844 16.17273438 23.90429688 16.26171875 23.33984375 C17.69093379 15.27592405 20.30673312 7.70973342 23 0 C24.98 0 26.96 0 29 0 C31.20338627 8.43099216 33.08657798 16.90231058 34.78979492 25.44799805 C35.19212797 27.46065123 35.60273069 29.47151074 36.01367188 31.48242188 C36.27083984 32.76568359 36.52800781 34.04894531 36.79296875 35.37109375 C37.0252417 36.52536865 37.25751465 37.67964355 37.49682617 38.86889648 C37.94433392 41.65360627 38.10169523 44.18840677 38 47 C35.03 47 32.06 47 29 47 C26.90551698 41.46458058 25.97217245 35.81235021 25 30 C22.58883496 35.97283522 20.23713768 41.95972825 18 48 C16.02 48 14.04 48 12 48 C10.02 42.06 8.04 36.12 6 30 C5.67 30 5.34 30 5 30 C4.79503906 31.14339844 4.59007813 32.28679687 4.37890625 33.46484375 C4.1069769 34.95576676 3.83483026 36.44665016 3.5625 37.9375 C3.42779297 38.69224609 3.29308594 39.44699219 3.15429688 40.22460938 C2.11328125 45.88671875 2.11328125 45.88671875 1 47 C-2.00003445 47.14177857 -4.99757235 47.04228771 -8 47 C-7.46154556 36.9268249 -5.41428983 27.1770021 -3.4375 17.3125 C-3.1043033 15.6283569 -2.77161703 13.94411273 -2.43945312 12.25976562 C-1.632179 8.17198868 -0.81802017 4.08563948 0 0 Z " fill="#420D43" transform="translate(61,34)"/>
<path d="M0 0 C7 0 7 0 8.92456055 1.55712891 C9.40707275 2.27304199 9.88958496 2.98895508 10.38671875 3.7265625 C10.93263672 4.51160156 11.47855469 5.29664063 12.04101562 6.10546875 C12.58435547 6.93691406 13.12769531 7.76835938 13.6875 8.625 C14.24244141 9.43324219 14.79738281 10.24148437 15.36914062 11.07421875 C16.93725277 13.36765269 18.47221815 15.67955841 20 18 C21.98 20.97 21.98 20.97 24 24 C24.33 16.08 24.66 8.16 25 0 C27.97 0 30.94 0 34 0 C34 15.84 34 31.68 34 48 C29 48 29 48 27.42602539 46.67407227 C26.76848267 45.75452759 26.76848267 45.75452759 26.09765625 44.81640625 C25.59943359 44.13513672 25.10121094 43.45386719 24.58789062 42.75195312 C23.83282227 41.66817383 23.83282227 41.66817383 23.0625 40.5625 C22.31323242 39.53092773 22.31323242 39.53092773 21.54882812 38.47851562 C17.89292664 33.40742647 14.4694636 28.2041954 11 23 C10.67 30.92 10.34 38.84 10 47 C6.7 47 3.4 47 0 47 C0 31.49 0 15.98 0 0 Z " fill="#420D43" transform="translate(243,34)"/>
<path d="M0 0 C1.62890625 1.1015625 1.62890625 1.1015625 3.75390625 3.1015625 C3.19661712 6.44529725 2.40216736 9.13469249 0.75390625 12.1015625 C0.09390625 11.7921875 -0.56609375 11.4828125 -1.24609375 11.1640625 C-6.01734197 9.47424542 -10.241662 8.2997898 -15.05859375 10.2265625 C-18.34414008 13.04274507 -20.05076364 15.67871673 -20.64453125 20.00390625 C-20.66949723 28.01356183 -20.66949723 28.01356183 -17.24609375 35.1015625 C-13.89981301 37.73078308 -10.36198433 37.33022309 -6.24609375 37.1015625 C-5.25609375 36.6065625 -5.25609375 36.6065625 -4.24609375 36.1015625 C-3.58836947 33.07221759 -3.58836947 33.07221759 -3.24609375 30.1015625 C-4.89609375 30.1015625 -6.54609375 30.1015625 -8.24609375 30.1015625 C-8.24609375 27.1315625 -8.24609375 24.1615625 -8.24609375 21.1015625 C-3.62609375 21.1015625 0.99390625 21.1015625 5.75390625 21.1015625 C5.75390625 28.3615625 5.75390625 35.6215625 5.75390625 43.1015625 C-1.93856891 47.49726259 -7.62732256 49.62712319 -16.3984375 47.60546875 C-22.05023703 45.68537563 -26.63152117 43.11509703 -29.50390625 37.75390625 C-33.04309881 29.15342084 -33.75008756 20.58089744 -30.68359375 11.7265625 C-28.14407934 6.12522221 -24.42567785 2.67507682 -18.95703125 -0.03125 C-13.24257554 -1.8592171 -5.62909524 -2.2516381 0 0 Z " fill="#420D43" transform="translate(195.24609375,33.8984375)"/>
<path d="M0 0 C9.57 0 19.14 0 29 0 C29 2.97 29 5.94 29 9 C22.73 9 16.46 9 10 9 C10 11.64 10 14.28 10 17 C14.29 17 18.58 17 23 17 C23 19.97 23 22.94 23 26 C18.71 26 14.42 26 10 26 C10 29.96 10 33.92 10 38 C16.27 38 22.54 38 29 38 C29 40.97 29 43.94 29 47 C19.43 47 9.86 47 0 47 C0 40.07 0 33.14 0 26 C-1.32 26 -2.64 26 -4 26 C-4.66 23.03 -5.32 20.06 -6 17 C-4.02 17 -2.04 17 0 17 C0 11.39 0 5.78 0 0 Z " fill="#420D43" transform="translate(298,34)"/>
<path d="M0 0 C9.57 0 19.14 0 29 0 C29 2.97 29 5.94 29 9 C22.4 9 15.8 9 9 9 C9 11.64 9 14.28 9 17 C13.62 17 18.24 17 23 17 C23 19.97 23 22.94 23 26 C18.38 26 13.76 26 9 26 C9 29.96 9 33.92 9 38 C15.6 38 22.2 38 29 38 C29 40.97 29 43.94 29 47 C19.43 47 9.86 47 0 47 C0 40.07 0 33.14 0 26 C-1.65 26 -3.3 26 -5 26 C-5.66 23.03 -6.32 20.06 -7 17 C-4.69 17 -2.38 17 0 17 C0 11.39 0 5.78 0 0 Z " fill="#420D43" transform="translate(9,34)"/>
<path d="M0 0 C1.32 0 2.64 0 4 0 C8.58063782 12.06177562 8.58063782 12.06177562 10.64379883 17.50927734 C11.14664563 18.83691463 11.64949393 20.16455135 12.15234375 21.4921875 C12.40017105 22.14657806 12.64799835 22.80096863 12.90333557 23.47518921 C14.28243361 27.11440473 15.66949001 30.75040243 17.06640625 34.3828125 C17.34790527 35.11951172 17.6294043 35.85621094 17.91943359 36.61523438 C18.63469466 38.48682659 19.354285 40.35676272 20.07421875 42.2265625 C21 45 21 45 21 48 C17.7 48 14.4 48 11 48 C9.74335022 45.09399739 9 43.20395416 9 40 C4.05 40 -0.9 40 -6 40 C-6.33 41.98 -6.66 43.96 -7 46 C-7.33 46.66 -7.66 47.32 -8 48 C-11.63 48 -15.26 48 -19 48 C-15.10052668 37.29355131 -10.92084739 26.70272486 -6.6875 16.125 C-6.41538696 15.44435486 -6.14327393 14.76370972 -5.86291504 14.06243896 C-1.18829031 2.37658061 -1.18829031 2.37658061 0 0 Z M1 20 C0.49384702 21.26839526 -0.00469099 22.53983102 -0.5 23.8125 C-0.7784375 24.52019531 -1.056875 25.22789063 -1.34375 25.95703125 C-2.1529162 28.11841216 -2.1529162 28.11841216 -2 31 C0.31 31 2.62 31 5 31 C4.71758359 29.53984709 4.42373386 28.08190207 4.125 26.625 C3.88136719 25.40683594 3.88136719 25.40683594 3.6328125 24.1640625 C3.13341068 21.81326077 3.13341068 21.81326077 1 20 Z " fill="#420D43" transform="translate(133,33)"/>
<path d="M0 0 C0.66 0 1.32 0 2 0 C2 0.66 2 1.32 2 2 C3.32 2.33 4.64 2.66 6 3 C5.67 4.65 5.34 6.3 5 8 C4.360625 8.12375 3.72125 8.2475 3.0625 8.375 C2.381875 8.58125 1.70125 8.7875 1 9 C0.67 9.66 0.34 10.32 0 11 C1.65 10.67 3.3 10.34 5 10 C5.66 11.65 6.32 13.3 7 15 C7.66 15 8.32 15 9 15 C9 13.68 9 12.36 9 11 C8.01 11 7.02 11 6 11 C6 10.01 6 9.02 6 8 C6.99 7.67 7.98 7.34 9 7 C9.33 7.33 9.66 7.66 10 8 C12.01594582 8.23427778 14.038474 8.41336124 16.0625 8.5625 C17.16722656 8.64628906 18.27195313 8.73007812 19.41015625 8.81640625 C20.69212891 8.90728516 20.69212891 8.90728516 22 9 C22.33 9.99 22.66 10.98 23 12 C21.68 12.33 20.36 12.66 19 13 C18.87882812 14.29035156 18.75765625 15.58070312 18.6328125 16.91015625 C18.07966002 21.86058184 17.04091982 26.60043941 15.875 31.4375 C13.46456169 41.7141087 11.30248131 52.03450725 9.1875 62.375 C8.94951691 63.53755814 8.94951691 63.53755814 8.70672607 64.72360229 C7.80142151 69.14844704 6.89932457 73.57393536 6 78 C4.02 77.34 2.04 76.68 0 76 C0.82463648 67.7167112 1.88690236 59.49794708 3.24609375 51.28515625 C3.41400673 50.26777626 3.41400673 50.26777626 3.58531189 49.22984314 C4.15331599 45.80282709 4.73200348 42.3779574 5.32299805 38.95483398 C6.45673682 32.20279916 7.28530974 25.8474337 7 19 C4.36 18.01 1.72 17.02 -1 16 C-0.67 14.68 -0.34 13.36 0 12 C-1.65 11.67 -3.3 11.34 -5 11 C-5 10.01 -5 9.02 -5 8 C-4.01 7.34 -3.02 6.68 -2 6 C-2.66 5.34 -3.32 4.68 -4 4 C-3.01 3.67 -2.02 3.34 -1 3 C-0.67 2.01 -0.34 1.02 0 0 Z M5 15 C6 17 6 17 6 17 Z " fill="#420D43" transform="translate(214,10)"/>
<path d="M0 0 C0.66 0 1.32 0 2 0 C2 0.66 2 1.32 2 2 C3.32 2.33 4.64 2.66 6 3 C5.67 4.65 5.34 6.3 5 8 C4.360625 8.12375 3.72125 8.2475 3.0625 8.375 C2.381875 8.58125 1.70125 8.7875 1 9 C0.67 9.66 0.34 10.32 0 11 C1.65 10.67 3.3 10.34 5 10 C5.66 11.65 6.32 13.3 7 15 C7.66 15 8.32 15 9 15 C9 13.68 9 12.36 9 11 C8.01 11 7.02 11 6 11 C6 10.01 6 9.02 6 8 C6.99 7.67 7.98 7.34 9 7 C9.33 7.33 9.66 7.66 10 8 C12.01594582 8.23427778 14.038474 8.41336124 16.0625 8.5625 C17.16722656 8.64628906 18.27195313 8.73007812 19.41015625 8.81640625 C20.69212891 8.90728516 20.69212891 8.90728516 22 9 C22.33 9.99 22.66 10.98 23 12 C21.68 12.33 20.36 12.66 19 13 C18.90912109 13.90492187 18.90912109 13.90492187 18.81640625 14.828125 C18.73261719 15.62734375 18.64882812 16.4265625 18.5625 17.25 C18.48128906 18.03890625 18.40007812 18.8278125 18.31640625 19.640625 C18 22 18 22 17 26 C14.03 25.67 11.06 25.34 8 25 C8 24.071875 8 23.14375 8 22.1875 C7.37579279 18.93907386 7.37579279 18.93907386 5.15234375 17.93359375 C3.11673196 17.19043389 1.09699804 16.54455074 -1 16 C-0.67 14.68 -0.34 13.36 0 12 C-1.65 11.67 -3.3 11.34 -5 11 C-5 10.01 -5 9.02 -5 8 C-4.01 7.34 -3.02 6.68 -2 6 C-2.66 5.34 -3.32 4.68 -4 4 C-3.01 3.67 -2.02 3.34 -1 3 C-0.67 2.01 -0.34 1.02 0 0 Z M5 15 C6 17 6 17 6 17 Z " fill="#F26625" transform="translate(214,10)"/>
<path d="M0 0 C0.66 0 1.32 0 2 0 C2 0.66 2 1.32 2 2 C3.32 2.33 4.64 2.66 6 3 C5.67 4.65 5.34 6.3 5 8 C4.360625 8.12375 3.72125 8.2475 3.0625 8.375 C2.381875 8.58125 1.70125 8.7875 1 9 C0.67 9.66 0.34 10.32 0 11 C1.65 10.67 3.3 10.34 5 10 C5.66 11.65 6.32 13.3 7 15 C7.66 15 8.32 15 9 15 C8.67 16.32 8.34 17.64 8 19 C5.03 18.01 2.06 17.02 -1 16 C-0.67 14.68 -0.34 13.36 0 12 C-1.65 11.67 -3.3 11.34 -5 11 C-5 10.01 -5 9.02 -5 8 C-4.01 7.34 -3.02 6.68 -2 6 C-2.66 5.34 -3.32 4.68 -4 4 C-3.01 3.67 -2.02 3.34 -1 3 C-0.67 2.01 -0.34 1.02 0 0 Z M5 15 C6 17 6 17 6 17 Z " fill="#FBAE17" transform="translate(214,10)"/>
<path d="M0 0 C0.99 0.66 1.98 1.32 3 2 C3 2.99 3 3.98 3 5 C1.68 5 0.36 5 -1 5 C-1.33 5.33 -1.66 5.66 -2 6 C-4.37692655 6.54852151 -6.55715689 7 -9 7 C-12.70205852 7.47462289 -14.59899904 8.09352516 -17 11 C-17.33 9.68 -17.66 8.36 -18 7 C-17.34 7 -16.68 7 -16 7 C-16 6.34 -16 5.68 -16 5 C-15.4225 4.87625 -14.845 4.7525 -14.25 4.625 C-11.96439949 4.08156967 -11.96439949 4.08156967 -9.9375 2.875 C-8 2 -8 2 -5 3 C-5 2.34 -5 1.68 -5 1 C-3.35 1.33 -1.7 1.66 0 2 C0 1.34 0 0.68 0 0 Z " fill="#FBAE17" transform="translate(105,10)"/>
<path d="M0 0 C1.6875 1.4375 1.6875 1.4375 3 3 C3.66 3 4.32 3 5 3 C5 2.34 5 1.68 5 1 C5.66 1 6.32 1 7 1 C7 1.66 7 2.32 7 3 C7.66 3 8.32 3 9 3 C9 4.32 9 5.64 9 7 C7.68 7.33 6.36 7.66 5 8 C5 7.34 5 6.68 5 6 C4.0925 6.53625 3.185 7.0725 2.25 7.625 C-1 9 -1 9 -3.375 8.1875 C-3.91125 7.795625 -4.4475 7.40375 -5 7 C-5 5.02 -5 3.04 -5 1 C-2.6875 0.3125 -2.6875 0.3125 0 0 Z " fill="#FBAE17" transform="translate(189,4)"/>
<path d="M0 0 C1.65 0.99 3.3 1.98 5 3 C5 2.34 5 1.68 5 1 C8.375 0.8125 8.375 0.8125 12 1 C12.66 1.99 13.32 2.98 14 4 C13.67 4.99 13.34 5.98 13 7 C8.125 6.125 8.125 6.125 7 5 C5.33985384 4.63557767 3.67293936 4.30027117 2 4 C2 4.99 2 5.98 2 7 C0.35 6.67 -1.3 6.34 -3 6 C-3 4.68 -3 3.36 -3 2 C-2.01 1.34 -1.02 0.68 0 0 Z " fill="#FBAE17" transform="translate(148,8)"/>
<path d="M0 0 C0.33 0.99 0.66 1.98 1 3 C-0.32 3.33 -1.64 3.66 -3 4 C-3 4.99 -3 5.98 -3 7 C-4.98 7.33 -6.96 7.66 -9 8 C-9.33 5.69 -9.66 3.38 -10 1 C-6.52674819 -0.1577506 -3.63932552 -0.06866652 0 0 Z " fill="#F58142" transform="translate(236,19)"/>
<path d="M0 0 C0.33 0.99 0.66 1.98 1 3 C3.31 3 5.62 3 8 3 C7.67 4.65 7.34 6.3 7 8 C4.525 7.01 4.525 7.01 2 6 C1.34 6.66 0.68 7.32 0 8 C-1.32 7.34 -2.64 6.68 -4 6 C-4 4.68 -4 3.36 -4 2 C-2.68 1.34 -1.36 0.68 0 0 Z " fill="#FCAE17" transform="translate(173,2)"/>
<path d="M0 0 C0.86625 0.2784375 0.86625 0.2784375 1.75 0.5625 C4.23698179 1.04607979 5.58585878 0.62300419 8 0 C8.99 0.33 9.98 0.66 11 1 C11 1.99 11 2.98 11 4 C10.113125 4.12375 9.22625 4.2475 8.3125 4.375 C5.29612498 4.94412736 2.79673946 5.76614436 0 7 C0 4.66666667 0 2.33333333 0 0 Z " fill="#FCAE17" transform="translate(110,8)"/>
<path d="M0 0 C0 0.99 0 1.98 0 3 C0.66 3 1.32 3 2 3 C1.34 4.65 0.68 6.3 0 8 C-2.97 7.505 -2.97 7.505 -6 7 C-6 5.02 -6 3.04 -6 1 C-3.92446352 0.4465236 -2.15634036 0 0 0 Z " fill="#FCAE17" transform="translate(200,14)"/>
<path d="M0 0 C1.2065625 0.0309375 1.2065625 0.0309375 2.4375 0.0625 C2.81968767 1.71864657 3.15145102 3.38707024 3.4375 5.0625 C2.4375 6.0625 2.4375 6.0625 -0.125 6.125 C-1.3315625 6.0940625 -1.3315625 6.0940625 -2.5625 6.0625 C-2.94468767 4.40635343 -3.27645102 2.73792976 -3.5625 1.0625 C-2.5625 0.0625 -2.5625 0.0625 0 0 Z " fill="#420D43" transform="translate(337.5625,33.9375)"/>
<path d="M0 0 C3.11257569 0 5.10765685 0.17361624 8 1 C8.33 2.32 8.66 3.64 9 5 C8.34 5 7.68 5 7 5 C7 5.66 7 6.32 7 7 C6.34 7 5.68 7 5 7 C5 6.34 5 5.68 5 5 C3.02 4.34 1.04 3.68 -1 3 C-0.67 2.01 -0.34 1.02 0 0 Z " fill="#FBAE17" transform="translate(157,4)"/>
<path d="M0 0 C0.66 0.33 1.32 0.66 2 1 C1.34 3.64 0.68 6.28 0 9 C-1.65 8.67 -3.3 8.34 -5 8 C-5.33 6.68 -5.66 5.36 -6 4 C-4.02 2.68 -2.04 1.36 0 0 Z " fill="#FBAE17" transform="translate(129,5)"/>
<path d="M0 0 C0 0.99 0 1.98 0 3 C0.66 3 1.32 3 2 3 C2 3.66 2 4.32 2 5 C1.34 5 0.68 5 0 5 C0 5.99 0 6.98 0 8 C-2.475 7.01 -2.475 7.01 -5 6 C-5 4.35 -5 2.7 -5 1 C-2 0 -2 0 0 0 Z " fill="#FBAE17" transform="translate(207,10)"/>
<path d="M0 0 C1.32 0.66 2.64 1.32 4 2 C4 2.66 4 3.32 4 4 C-2.75 6 -2.75 6 -5 6 C-5.33 4.68 -5.66 3.36 -6 2 C-3 1 -3 1 0 2 C0 1.34 0 0.68 0 0 Z " fill="#FBAE17" transform="translate(169,10)"/>
<path d="M0 0 C1.65 0.33 3.3 0.66 5 1 C5 2.65 5 4.3 5 6 C3.35 6.33 1.7 6.66 0 7 C-0.66 5.68 -1.32 4.36 -2 3 C-1.34 2.01 -0.68 1.02 0 0 Z " fill="#FCAF17" transform="translate(177,11)"/>
<path d="M0 0 C1.32 0.66 2.64 1.32 4 2 C3.67 4.31 3.34 6.62 3 9 C1.68 8.67 0.36 8.34 -1 8 C-1.33 6.02 -1.66 4.04 -2 2 C-1.34 2 -0.68 2 0 2 C0 1.34 0 0.68 0 0 Z " fill="#FCAE17" transform="translate(134,4)"/>
<path d="M0 0 C0.66 0.33 1.32 0.66 2 1 C2.40729228 3.32156597 2.74438677 5.6568787 3 8 C1.68 8 0.36 8 -1 8 C-0.79375 7.401875 -0.5875 6.80375 -0.375 6.1875 C0.30671915 3.71549154 0.30671915 3.71549154 -2 1 C-1.34 0.67 -0.68 0.34 0 0 Z " fill="#FBAE17" transform="translate(141,4)"/>
<path d="M0 0 C0.99 0.66 1.98 1.32 3 2 C2.67 3.32 2.34 4.64 2 6 C1.01 6 0.02 6 -1 6 C-1.625 4.125 -1.625 4.125 -2 2 C-1.34 1.34 -0.68 0.68 0 0 Z " fill="#FCAE17" transform="translate(205,19)"/>
<path d="M0 0 C1.32 0.66 2.64 1.32 4 2 C3.34 3.32 2.68 4.64 2 6 C1.01 6 0.02 6 -1 6 C-1.625 4.125 -1.625 4.125 -2 2 C-1.34 1.34 -0.68 0.68 0 0 Z " fill="#FCAE17" transform="translate(189,15)"/>
<path d="M0 0 C0.99 0.33 1.98 0.66 3 1 C3 1.99 3 2.98 3 4 C1.68 4.33 0.36 4.66 -1 5 C-1.33 4.01 -1.66 3.02 -2 2 C-1.34 1.34 -0.68 0.68 0 0 Z " fill="#FCAF17" transform="translate(146,3)"/>
<path d="M0 0 C0.99 0.33 1.98 0.66 3 1 C3 1.99 3 2.98 3 4 C1.68 4 0.36 4 -1 4 C-0.67 2.68 -0.34 1.36 0 0 Z " fill="#FCAE17" transform="translate(184,12)"/>
<path d="M0 0 C0.99 0 1.98 0 3 0 C2.67 1.32 2.34 2.64 2 4 C1.34 3.67 0.68 3.34 0 3 C0 2.01 0 1.02 0 0 Z " fill="#FCAF17" transform="translate(191,12)"/>
<path d="M0 0 C0.99 0 1.98 0 3 0 C3 0.99 3 1.98 3 3 C1.68 2.67 0.36 2.34 -1 2 C-0.67 1.34 -0.34 0.68 0 0 Z " fill="#FCAE17" transform="translate(152,5)"/>
<path d="M0 0 C0.99 0 1.98 0 3 0 C3 0.99 3 1.98 3 3 C2.01 3 1.02 3 0 3 C0 2.01 0 1.02 0 0 Z " fill="#FCAF17" transform="translate(98,23)"/>
<path d="M0 0 C0.66 0.33 1.32 0.66 2 1 C2 1.66 2 2.32 2 3 C1.01 3 0.02 3 -1 3 C-0.67 2.01 -0.34 1.02 0 0 Z " fill="#FCAF17" transform="translate(74,24)"/>
<path d="M0 0 C0.66 0.33 1.32 0.66 2 1 C2 1.66 2 2.32 2 3 C1.01 3 0.02 3 -1 3 C-0.67 2.01 -0.34 1.02 0 0 Z " fill="#FCAF17" transform="translate(137,15)"/>
<path d="M0 0 C0.66 0 1.32 0 2 0 C2 0.99 2 1.98 2 3 C1.01 2.67 0.02 2.34 -1 2 C-0.67 1.34 -0.34 0.68 0 0 Z " fill="#FCAE17" transform="translate(121,6)"/>
<path d="M0 0 C0.99 0.33 1.98 0.66 3 1 C2.34 1.66 1.68 2.32 1 3 C0.67 2.01 0.34 1.02 0 0 Z " fill="#FCAE17" transform="translate(89,31)"/>
<path d="M0 0 C0.66 0.66 1.32 1.32 2 2 C1.01 2.33 0.02 2.66 -1 3 C-0.67 2.01 -0.34 1.02 0 0 Z " fill="#FCAF17" transform="translate(81,21)"/>
<path d="M0 0 C0.99 0.33 1.98 0.66 3 1 C2.34 1.66 1.68 2.32 1 3 C0.67 2.01 0.34 1.02 0 0 Z " fill="#FCAD17" transform="translate(92,21)"/>
<path d="M0 0 C0.66 0 1.32 0 2 0 C2 0.99 2 1.98 2 3 C1.34 3 0.68 3 0 3 C0 2.01 0 1.02 0 0 Z " fill="#FCAE17" transform="translate(149,20)"/>
<path d="M0 0 C0.66 0 1.32 0 2 0 C2 0.99 2 1.98 2 3 C1.34 3 0.68 3 0 3 C0 2.01 0 1.02 0 0 Z " fill="#FCAF17" transform="translate(169,18)"/>
<path d="M0 0 C0.99 0 1.98 0 3 0 C3 0.66 3 1.32 3 2 C2.01 1.67 1.02 1.34 0 1 C0 0.67 0 0.34 0 0 Z " fill="#FCAF17" transform="translate(68,30)"/>
<path d="M0 0 C0.66 0 1.32 0 2 0 C2 0.66 2 1.32 2 2 C1.01 1.67 0.02 1.34 -1 1 C-0.67 0.67 -0.34 0.34 0 0 Z " fill="#FBAD17" transform="translate(118,19)"/>
<path d="M0 0 C0.66 0 1.32 0 2 0 C2 0.66 2 1.32 2 2 C1.34 2 0.68 2 0 2 C0 1.34 0 0.68 0 0 Z " fill="#FCAF17" transform="translate(106,19)"/>
<path d="M0 0 C0.66 0 1.32 0 2 0 C2 0.66 2 1.32 2 2 C1.34 2 0.68 2 0 2 C0 1.34 0 0.68 0 0 Z " fill="#FCAF17" transform="translate(83,19)"/>
<path d="M0 0 C0.66 0 1.32 0 2 0 C2 0.66 2 1.32 2 2 C1.34 2 0.68 2 0 2 C0 1.34 0 0.68 0 0 Z " fill="#FCAF17" transform="translate(107,9)"/>
</svg>
