<svg width="95" height="40" viewBox="0 0 95 40" fill="none" xmlns="http://www.w3.org/2000/svg">
<path fill-rule="evenodd" clip-rule="evenodd" d="M50.3213 3.65274C54.8363 -0.169783 59.5703 -0.0921131 63.5971 1.89235C67.3415 3.86595 68.6829 6.70556 68.7427 10.8512L68.7404 21.0209C68.7404 21.0209 68.7027 23.89 65.7609 23.89C62.9664 23.89 62.834 21.0384 62.834 21.0384L62.7943 10.9906C62.7943 10.9906 62.625 6.32226 57.9563 6.32226C53.2646 6.32226 52.8914 10.9661 52.8914 10.9661V20.857C52.8914 20.857 52.8914 23.8535 49.9206 23.8535C47.0192 23.8535 46.9586 20.857 46.9586 20.857L46.9563 10.9941C46.9563 10.9941 46.8677 6.32226 41.9081 6.32226C36.9722 6.32226 37.0988 11.064 37.0988 11.064V21.2077C37.0988 21.2077 36.7543 23.8757 34.1516 23.8757C31.4538 23.8757 31.1804 21.1828 31.1804 21.1828L31.1621 10.9471C31.1621 7.17352 31.8907 3.42828 37.26 1.30828C39.6992 0.34478 42.5609 0.364974 45.1275 0.949052C46.839 1.57041 48.3174 2.4073 49.7571 3.65274L50.0301 3.8908L50.3213 3.65274Z" fill="#E51937"/>
<path fill-rule="evenodd" clip-rule="evenodd" d="M21.6792 20.9593C21.6792 18.0176 18.7619 18.0059 18.7619 18.0059H8.24777C7.62524 18.0059 7.55223 17.5318 7.70214 16.976C8.98641 13.7861 11.8346 10.2145 14.88 8.65488C17.3992 7.3675 20.2882 6.02925 23.2831 6.22459C23.9099 6.27469 23.9099 6.56439 23.9107 7.54847V20.8157C23.9107 20.8157 24.0617 23.8289 26.9798 23.8289C29.9825 23.8289 29.7445 20.9155 29.7445 20.9155L29.732 4.25527C29.7713 3.24323 29.5868 2.27041 28.9841 1.49216C28.5363 1.08439 27.9332 0.656045 27.2516 0.559735C23.6722 0.266919 20.2353 0.590803 16.9429 1.5508C10.8346 3.33022 4.99922 8.29177 2.00427 14.1951C0.984078 16.2056 0.038835 18.8436 0 21.2759C0.038835 22.4428 0.525437 23.804 1.85709 23.804L18.8093 23.8898C18.8093 23.8898 21.6792 23.9982 21.6792 20.9593Z" fill="#E51937"/>
<path fill-rule="evenodd" clip-rule="evenodd" d="M91.7834 13.7371C94.7504 14.0459 94.3803 16.8303 94.3803 16.8303C92.7784 21.8684 88.0587 24.9484 82.4914 24.9484C75.602 24.9484 70.0176 19.3616 70.0176 12.4727C70.0176 5.5845 75.602 3.05176e-05 82.4914 3.05176e-05C88.0848 3.05176e-05 92.8176 2.72896 94.4001 7.80042C94.4001 7.80042 95.1551 10.854 91.8719 11.2338C89.4424 11.2338 89.0673 9.25246 89.0673 9.25246C88.1271 6.53129 85.543 5.5309 82.5019 5.5309C78.6673 5.5309 75.5601 8.63809 75.5601 12.4727C75.5601 16.3088 78.6673 19.4175 82.5019 19.4175C85.5065 19.4175 88.063 18.0835 89.0316 15.4132C89.0316 15.4132 89.6269 13.6882 91.7834 13.7371Z" fill="#E51937"/>
<path fill-rule="evenodd" clip-rule="evenodd" d="M3.4984 31.411C4.01451 31.411 4.40908 31.5656 4.67082 31.8716C4.81723 32.0437 4.93956 32.3031 5.03354 32.6425L5.03743 32.6557H6.56713L6.56597 32.6367C6.54383 32.1881 6.37762 31.7349 6.07276 31.2903C5.52014 30.498 4.63471 30.0965 3.44131 30.0965C2.54888 30.0965 1.80325 30.3963 1.225 30.9866C0.561308 31.6642 0.224609 32.6417 0.224609 33.8922C0.224609 35.0483 0.52092 35.9718 1.10461 36.6363C1.68869 37.2988 2.50267 37.6343 3.52286 37.6343C4.3481 37.6343 5.03393 37.3854 5.56247 36.8953C6.09063 36.4056 6.42344 35.7609 6.5516 34.9792L6.55509 34.9582H5.03238L5.02888 34.9714C4.93141 35.3369 4.80791 35.6145 4.66111 35.7967C4.39665 36.1337 4.00597 36.305 3.50034 36.305C3.00713 36.305 2.59548 36.1054 2.27587 35.7112C1.95471 35.3163 1.79199 34.712 1.79199 33.9167C1.79199 33.1198 1.94655 32.4957 2.25063 32.0619C2.55393 31.6301 2.97335 31.411 3.4984 31.411Z" fill="#E51937"/>
<mask id="mask0" mask-type="alpha" maskUnits="userSpaceOnUse" x="0" y="0" width="95" height="40">
<path fill-rule="evenodd" clip-rule="evenodd" d="M0 39.7188H94.4757V0H0V39.7188Z" fill="white"/>
</mask>
<g mask="url(#mask0)">
<path fill-rule="evenodd" clip-rule="evenodd" d="M7.39062 37.435H8.91451V30.2326H7.39062V37.435Z" fill="#E51937"/>
<path fill-rule="evenodd" clip-rule="evenodd" d="M14.4519 35.1798L11.6406 30.2416L11.6352 30.2326H10.0371V37.435H11.4686V32.3992L14.3524 37.426L14.3575 37.435H15.8833V30.2326H14.4519V35.1798Z" fill="#E51937"/>
<path fill-rule="evenodd" clip-rule="evenodd" d="M18.5795 34.3037H22.0607V33.023H18.5795V31.5375H22.3721V30.2327H17.0801V37.435H22.5469V36.1103H18.5795V34.3037Z" fill="#E51937"/>
<path fill-rule="evenodd" clip-rule="evenodd" d="M26.9392 35.8055L25.6526 30.2467L25.6492 30.2323H23.4375V37.4351H24.8693V32.5698C24.8693 32.4366 24.8678 32.2502 24.8643 31.9834C24.862 31.8215 24.8604 31.6824 24.86 31.5675L26.1723 37.4211L26.1754 37.4351H27.6592L28.9847 31.5663C28.9839 31.6813 28.9827 31.8211 28.9804 31.9834C28.9773 32.2296 28.9754 32.4265 28.9754 32.5698V37.4351H30.4072V30.2323H28.2196L26.9392 35.8055Z" fill="#E51937"/>
<path fill-rule="evenodd" clip-rule="evenodd" d="M35.3213 34.6908H33.5353L34.4405 31.9467L35.3213 34.6908ZM35.3163 30.2325H33.5967L31.0339 37.4108L31.0254 37.4348H32.6304L33.1163 35.9618H35.7295L36.1982 37.4228L36.2025 37.4348H37.8646L35.3205 30.2446L35.3163 30.2325Z" fill="#E51937"/>
<path fill-rule="evenodd" clip-rule="evenodd" d="M43.4957 33.8441C43.2196 33.6258 42.8002 33.4499 42.2491 33.3206L40.9916 33.0239C40.5097 32.9113 40.1909 32.8118 40.0437 32.7287C39.8184 32.606 39.7043 32.4184 39.7043 32.1707C39.7043 31.8996 39.8208 31.6856 40.0503 31.5342C40.2825 31.3812 40.5975 31.3039 40.9874 31.3039C41.3381 31.3039 41.6355 31.3637 41.8713 31.4818C42.2227 31.6596 42.4142 31.9637 42.4398 32.3858L42.4406 32.4029H43.9155L43.9148 32.3843C43.8883 31.62 43.6006 31.0289 43.0584 30.627C42.5175 30.2266 41.8557 30.0235 41.0915 30.0235C40.1757 30.0235 39.4713 30.239 38.9975 30.6651C38.5233 31.0911 38.2825 31.6336 38.2825 32.2779C38.2825 32.9847 38.5291 33.5113 39.0149 33.8437C39.3004 34.0414 39.8313 34.2274 40.5928 34.3959L41.3687 34.566C41.82 34.6627 42.1524 34.7746 42.3582 34.8992C42.561 35.0251 42.6631 35.2045 42.6631 35.4332C42.6631 35.8278 42.4518 36.1019 42.0351 36.2476C41.813 36.3245 41.5194 36.3633 41.1621 36.3633C40.568 36.3633 40.1435 36.2165 39.9004 35.9272C39.7672 35.7687 39.6771 35.5252 39.6316 35.2025L39.6293 35.187H38.166V35.2049C38.166 35.9524 38.441 36.5485 38.9839 36.9765C39.5249 37.4033 40.2779 37.62 41.2212 37.62C42.145 37.62 42.8709 37.4002 43.3777 36.9664C43.886 36.5322 44.1435 35.9788 44.1435 35.3214C44.1435 34.6806 43.9252 34.1835 43.4957 33.8441Z" fill="#E51937"/>
<path fill-rule="evenodd" clip-rule="evenodd" d="M50.291 37.5089V30.2251H51.9497V36.1672H52.0615V37.5089H50.291Z" fill="#E51937"/>
<path fill-rule="evenodd" clip-rule="evenodd" d="M58.8758 37.2158H59.2941C59.9069 37.2158 60.2001 36.9451 60.2001 36.3925V33.7428H59.7818C59.1686 33.7428 58.8758 34.0134 58.8758 34.5661V37.2158ZM51.9492 37.509V36.1672H57.2172V34.4418C57.2172 33.2356 58.2762 32.4014 59.8378 32.4014H61.8867V36.1672H61.9566V37.509H61.5663C61.0642 38.2193 60.27 38.5688 59.2102 38.5688H57.2172V37.509H51.9492Z" fill="#E51937"/>
<path fill-rule="evenodd" clip-rule="evenodd" d="M67.3597 31.567H69.0188V30.2253H67.3597V31.567ZM61.8867 36.167H67.3597V32.4012H69.0188V36.167H69.1023V37.5091H61.8867V36.167Z" fill="#E51937"/>
<path fill-rule="evenodd" clip-rule="evenodd" d="M76.1927 39.7188H77.8514V38.3546H76.1927V39.7188ZM73.837 39.7188H75.4956V38.3546H73.837V39.7188ZM69.0195 36.167H76.1927V32.4012H77.8514V36.167H77.9349V37.5091H69.0195V36.167Z" fill="#E51937"/>
<path fill-rule="evenodd" clip-rule="evenodd" d="M85.5117 36.1671V34.2165H87.1707V36.1671H89.0663V33.3143H90.7253V36.1671H92.5789V32.4013H94.2379V37.5089H77.7109V36.1671H85.5117Z" fill="#E51937"/>
</g>
</svg>
